<svg height="20" viewBox="0 0 100 20" width="100" xmlns="http://www.w3.org/2000/svg"><path d="m16.9905928 6.37777778h4.1261759l-5.1372256 13.37916662h-2.6505898l-2.5139615-6.4729166c-.84709573 2.2479166-1.66686577 4.3604166-2.45931015 6.4729166h-2.67791549l-5.16455129-13.37916662h4.15350157l2.35000747 7.36666662 2.32268179-7.36666662h2.9784978l2.3226818 7.39375002zm8.2576746 3.95416662-3.0058235-1.70624996c1.5029118-1.67916666 3.5250112-2.46458333 5.6290877-2.46458333 4.0441989 0 5.683739 2.19375 5.683739 4.25208329v9.34375h-4.0441989v-.9479166c-.6284904.65-1.7488428 1.1375-3.0058235 1.1375-3.6889653 0-5.1099-1.625-5.1099-4.1166667 0-2.8166667 2.2953561-4.7125 6.011647-4.7125h2.1040765c0-1.0020833-.7651188-1.65208332-1.9127968-1.65208332-1.1750038 0-1.7488428.21666666-2.3500075.86666662zm4.2628043 5.0104167v-1.1916667h-2.3773332c-1.065701 0-1.8581454.73125-1.6941914 1.7604167.1093027.73125.7651187 1.0291667 1.6941914 1.0291667 1.7761685 0 2.3773332-1.0020834 2.3773332-1.5979167zm11.2908237-1.2729167c0 .975-.0273256 2.6 1.4755861 2.6.7377931 0 1.2023294-.2979166 1.7215171-.6770833v3.3041667c-.6284904.3520833-1.3936091.6770833-2.2133791.6770833-3.4703599 0-5.027923-1.4625-5.027923-5.9041667v-4.38749996h-1.5029117v-3.30416666h1.5029117v-3.84583334h4.0441989v3.84583334h3.1971032v3.30416666h-3.1971032zm15.22572.89375 2.8418695 2.5458334c-1.5302374 1.6791666-3.5250112 2.4645833-5.6564133 2.4645833-3.9348962 0-7.1046737-2.925-7.1046737-6.8791667 0-3.95416662 3.1697775-6.90624996 7.1046737-6.90624996 2.1314021 0 4.1261759.78541667 5.6564133 2.46458334l-2.8418695 2.54583332c-.6011647-1.38124999-1.9127967-1.70624999-2.8145438-1.70624999-1.6668657 0-3.0604748 1.46249999-3.0604748 3.60208329 0 2.1125 1.3936091 3.575 3.0604748 3.575.9017471 0 2.2407048-.24375 2.8145438-1.70625zm17.4664248-2.84375v7.6375h-4.0441989v-7.6375c0-2.0583333-.5465133-2.92499996-2.1314021-2.92499996-1.6395401 0-2.5959385.86666666-2.5959385 2.92499996v7.6375h-4.0441988v-19.66249996h4.0441988v7.77291667c.5191877-1.48958333 2.4866359-1.67916667 3.6616396-1.67916667 3.7709422 0 5.1098999 1.81458334 5.1098999 5.93124996zm15.7995591.975v.89375h-9.6186352c0 1.5708334 1.6122144 2.68125 2.9511721 2.68125 1.3116321 0 2.5139615-.5145833 3.1424519-1.6520833l2.7052411 2.4645833c-1.0930267 1.4625-2.7598925 2.4916667-5.847693 2.4916667-4.4267582 0-7.1319994-2.925-7.1319994-6.8791667 0-3.95416662 2.6232642-6.90624996 6.8860684-6.90624996 4.2628043 0 6.9133941 2.89791667 6.9133941 6.90624996zm-9.5366582-1.6520833h5.3011796c-.2186053-1.2729167-1.1476781-1.94999999-2.6779155-1.94999999-1.4755861 0-2.3773331.78541669-2.6232641 1.94999999zm20.1170146-4.87499999-.5465134 3.00625c-1.0110497-.43333333-1.2023294-.35208333-1.6668657-.35208333-1.6395401 0-2.5959385.86666662-2.5959385 3.00625002v7.5291666h-4.0441989v-13.37916662h4.0441989v1.19166666c.5191877-.92083333 1.9401224-1.38125 2.8418695-1.38125.8470957 0 1.3389577.02708334 1.9674481.37916667z" fill="#222831"/></svg>