<svg height="207" viewBox="0 0 288 207" width="288" xmlns="http://www.w3.org/2000/svg"><g fill="#222831" fill-rule="evenodd"><g transform="translate(89 1)"><path d="m9.51167703 70.044764c-5.24886255 0-9.51177479 4.3069506-9.51177479 9.6104596s4.26291224 9.6557865 9.51177479 9.6557865c1.02617357 0 2.03581067-.1728011 3.00611717-.4987236 15.4909354 23.9962485 46.2287779 29.5333755 68.7357749 16.5462475.6574493-.379756.913993-1.329972.5381154-1.994641-.3758762-.664541-1.3162367-.92368-1.9741325-.543923-21.1567929 12.20819-50.0398343 7.147186-64.742367-15.3676194 2.3893393-1.7536585 3.9482662-4.595545 3.9482662-7.797127 0-5.303509-4.2624656-9.6104596-9.51177417-9.6104596z"/><path d="m81.2535691 15.9634592c-1.1995858.1540355-1.5607142 2.1460605-.4934215 2.7199354 16.9399144 10.4353469 26.3985034 30.8551198 22.2535824 51.4973503-.495656-.0850674-1.011424-.1358539-1.525406-.1358539-5.2488606 0-9.5117739 4.3069506-9.5117739 9.6103326 0 5.303509 4.2629133 9.6557865 9.5117739 9.6557865 5.248862 0 9.511774-4.3522775 9.511774-9.6557865 0-3.7475371-2.12788-6.9958427-5.249308-8.5676854 4.550295-21.9538304-5.463392-43.7803645-23.5099301-54.8973426-.2395594-.1539085-.5247071-.23391-.8080674-.2266602-.0603436-.003809-.1188835-.003809-.1792234 0z"/><path d="m55.5000013.45984652c-5.0611472 0-9.1756763 4.0246664-9.4666338 9.06644708-21.6917789 4.0548209-37.49736028 21.3971975-41.09790815 41.9776082-.11246933.5206067.06658035 1.0616097.46636835 1.4091435.399788.3475337.95596264.4456576 1.44866084.255582.49269819-.1900756.84261301-.6377552.91141855-1.1660654 3.38199471-19.3304402 18.14888721-35.6405047 38.49537771-39.5750123 1.04271 4.1713378 4.7965585 7.2531525 9.2427165 7.2531525 5.2488607 0 9.5117741-4.3069378 9.5117741-9.6104341 0-5.30348362-4.2629134-9.61042148-9.5117741-9.61042148z"/></g><path d="m49.6479289 19.797305h11.6773166l-14.5386458 38.2026119h-7.5013226l-7.1146565-18.4826402c-2.3973299 6.4186575-4.7173266 12.4506489-6.95999 18.4826402h-7.5786559l-14.61597902-38.2026119h11.75464982l6.6506572 21.0346365 6.5733239-21.0346365h8.4293212l6.5733239 21.1119697zm23.3696971 11.2906505-8.5066545-4.871993c4.2533272-4.7946598 9.9759857-7.0373233 15.9306438-7.0373233 11.445317 0 16.0853103 6.263991 16.0853103 12.1413159v26.6799618h-11.4453169v-2.7066628c-1.7786641 1.8559974-4.9493263 3.2479954-8.5066545 3.2479954-10.439985 0-14.4613126-4.6399934-14.4613126-11.7546498 0-8.0426552 6.4959907-13.4559808 17.013309-13.4559808h5.9546581c0-2.8613292-2.1653302-4.7173265-5.4133256-4.7173265-3.3253286 0-4.9493262.6186657-6.6506571 2.4746631zm12.0639827 14.3066461v-3.4026617h-6.7279904c-3.0159956 0-5.2586591 2.087997-4.7946598 5.0266594.3093329 2.087997 2.1653303 2.9386625 4.7946598 2.9386625 5.0266595 0 6.7279904-2.8613293 6.7279904-4.5626602zm31.9536843-3.6346614c0 2.783996-.077333 7.4239894 4.175995 7.4239894 2.087997 0 3.402661-.8506655 4.871993-1.9333306v9.4346531c-1.778665 1.0053319-3.943995 1.9333306-6.263992 1.9333306-9.821319 0-14.229312-4.175994-14.229312-16.8586425v-12.5279821h-4.253328v-9.4346531h4.253328v-10.98131763h11.445316v10.98131763h9.047988v9.4346531h-9.047988zm43.089669 2.5519963 8.042655 7.269323c-4.33066 4.7946598-9.975985 7.0373232-16.007977 7.0373232-11.135984 0-20.106637-8.351988-20.106637-19.6426385s8.970653-19.7199718 20.106637-19.7199718c6.031992 0 11.677317 2.2426635 16.007977 7.0373233l-8.042655 7.2693229c-1.701331-3.9439944-5.413325-4.871993-7.965322-4.871993-4.717326 0-8.661321 4.175994-8.661321 10.2853186 0 6.0319913 3.943995 10.2079854 8.661321 10.2079854 2.551997 0 6.341325-.695999 7.965322-4.8719931zm49.430993-8.1199883v21.8079687h-11.445317v-21.8079687c0-5.877325-1.546664-8.3519881-6.031991-8.3519881-4.639993 0-7.346656 2.4746631-7.346656 8.3519881v21.8079687h-11.445317v-56.14391956h11.445317v22.19463486c1.469331-4.2533272 7.037323-4.7946598 10.362652-4.7946598 10.671985 0 14.461312 5.1813259 14.461312 16.9359758zm44.713667 2.783996v2.5519963h-27.221294c0 4.4853269 4.56266 7.6559891 8.351988 7.6559891 3.711994 0 7.114656-1.4693313 8.89332-4.7173266l7.655989 7.0373232c-3.093329 4.1759941-7.810655 7.1146565-16.549309 7.1146565-12.527982 0-20.183971-8.351988-20.183971-19.6426385s7.423989-19.7199718 19.487972-19.7199718c12.063982 0 19.565305 8.2746548 19.565305 19.7199718zm-26.989295-4.7173266h15.002645c-.618665-3.6346615-3.247995-5.567992-7.578655-5.567992-4.175994 0-6.727991 2.2426634-7.42399 5.567992zm56.932316-13.9199801-1.546665 8.5839877c-2.861329-1.2373315-3.402661-1.0053319-4.717326-1.0053319-4.639993 0-7.346656 2.4746632-7.346656 8.5839878v21.4986358h-11.445317v-38.2026119h11.445317v3.4026618c1.469331-2.6293296 5.490659-3.9439944 8.042655-3.9439944 2.39733 0 3.789328.0773332 5.567992 1.0826651z" fill-rule="nonzero" transform="translate(.984006 144.218145)"/></g></svg>