<svg height="72" viewBox="0 0 69 72" width="69" xmlns="http://www.w3.org/2000/svg"><g fill="#222831" fill-rule="evenodd" transform="translate(.000061 .716828)"><path d="m5.89580355 43.1333764c-3.25350223 0-5.89586414 2.6522085-5.89586414 5.918095s2.64236191 5.9460072 5.89586414 5.9460072c.63607266 0 1.2618952-.1064104 1.86333872-.3071126 9.60204093 14.7768249 28.65486203 18.1865727 42.60580173 10.1891343.4075192-.2338528.5665376-.8189931.3335503-1.2282942-.2329865-.4092229-.815868-.5687995-1.2236641-.3349467-13.114017 7.5177704-31.0171415 4.4012182-40.13049179-9.4633383 1.48102959-1.0798981 2.44732889-2.8299241 2.44732889-4.8014497 0-3.2658865-2.64208506-5.918095-5.89586375-5.918095z"/><path d="m50.364944 9.83025504c-.7435621.09485465-.9674072 1.32153826-.3058468 1.67492886 10.500189 6.4260584 16.3630859 19.0004994 13.7938611 31.7119292-.3072323-.0523843-.6269304-.0836585-.9455215-.0836585-3.2535011 0-5.8958637 2.6522085-5.8958637 5.9180168 0 3.2658865 2.6423626 5.9460072 5.8958637 5.9460072 3.2535019 0 5.8958638-2.6801207 5.8958638-5.9460072 0-2.3077232-1.3189644-4.308021-3.2537787-5.2759575 2.8204957-13.5191095-3.3864783-26.9598301-14.5726067-33.8056352-.1484907-.09477646-.3252392-.14404114-.5008798-.13957675-.0374039-.00234557-.0736898-.00234557-.1110914 0z"/><path d="m34.4016206.28317224c-3.1371471 0-5.6875338 2.4783787-5.8678835 5.58309361-13.4456276 2.49694775-23.24270152 13.17633645-25.47449753 25.84969765-.069714.3205882.04126976.6537364.28907796.8677468.24780819.2140103.59255249.2744347.89795098.1573867.30539848-.117048.52229283-.392728.56494188-.7180599 2.09632603-11.9036329 11.24956971-21.9473265 23.86132161-24.37018568.6463227 2.56869858 2.973142 4.46647178 5.7290886 4.46647178 3.2535011 0 5.8958637-2.65220071 5.8958637-5.9180794 0-3.26587086-2.6423626-5.91807156-5.8958637-5.91807156z"/></g></svg>